<?xml version="1.0" ?><svg height="24px" version="1.1" viewBox="0 0 24 24" width="24px" xmlns="http://www.w3.org/2000/svg" xmlns:sketch="http://www.bohemiancoding.com/sketch/ns" xmlns:xlink="http://www.w3.org/1999/xlink"><title/><desc/><defs/><g fill="none" fill-rule="evenodd" id="miu" stroke="none" stroke-width="1"><g id="Artboard-1" transform="translate(-719.000000, -155.000000)"><g id="slice" transform="translate(215.000000, 119.000000)"/><path d="M731.5,178 C737.851275,178 743,172.851275 743,166.5 C743,160.148725 737.851275,155 731.5,155 C725.148725,155 720,160.148725 720,166.5 C720,172.851275 725.148725,178 731.5,178 Z M731.5,177 C737.29899,177 742,172.29899 742,166.5 C742,160.70101 737.29899,156 731.5,156 C725.70101,156 721,160.70101 721,166.5 C721,172.29899 725.70101,177 731.5,177 Z M732.98059,168.956148 L733.355181,161.245732 L731.070063,168.61927 L731.563132,171.408948 L732.98059,168.956148 Z M724.5,166 C724.5,162.134007 727.634007,159 731.5,159 C735.365993,159 738.5,162.134007 738.5,166 L739,166 L739.5,166 C739.5,161.581722 735.918278,158 731.5,158 C727.081722,158 723.5,161.581722 723.5,166 L724,166 L724.5,166 Z" fill="#000000" id="circle-dashboard-meter-fuel-gauge-outline-stroke"/></g></g></svg>