<?xml version="1.0" ?><svg height="24px" version="1.1" viewBox="0 0 24 24" width="24px" xmlns="http://www.w3.org/2000/svg" xmlns:sketch="http://www.bohemiancoding.com/sketch/ns" xmlns:xlink="http://www.w3.org/1999/xlink"><title/><desc/><defs/><g fill="none" fill-rule="evenodd" id="miu" stroke="none" stroke-width="1"><g id="Artboard-1" transform="translate(-431.000000, -155.000000)"><g id="slice" transform="translate(215.000000, 119.000000)"/><path d="M443,170.081066 L439.964466,167.045532 L439.257359,167.752639 L443.5,171.99528 L447.742641,167.752639 L447.035534,167.045532 L443.998437,170.082629 L443.998437,161 L443,161 L443,170.081066 Z M432,166.5 C432,160.148725 437.148725,155 443.5,155 C449.851275,155 455,160.148725 455,166.5 C455,172.851275 449.851275,178 443.5,178 C437.148725,178 432,172.851275 432,166.5 Z M454,166.5 C454,160.70101 449.29899,156 443.5,156 C437.70101,156 433,160.70101 433,166.5 C433,172.29899 437.70101,177 443.5,177 C449.29899,177 454,172.29899 454,166.5 Z" fill="#000000" id="circle-arrow_up-upload-outline-stroke" transform="translate(443.500000, 166.500000) scale(1, -1) translate(-443.500000, -166.500000) "/></g></g></svg>