<?xml version="1.0" ?><svg height="24px" version="1.1" viewBox="0 0 24 24" width="24px" xmlns="http://www.w3.org/2000/svg" xmlns:sketch="http://www.bohemiancoding.com/sketch/ns" xmlns:xlink="http://www.w3.org/1999/xlink"><title/><desc/><defs/><g fill="none" fill-rule="evenodd" id="miu" stroke="none" stroke-width="1"><g id="Artboard-1" transform="translate(-575.000000, -371.000000)"><g id="slice" transform="translate(215.000000, 119.000000)"/><path d="M579.352941,376 C579.352941,376 577,376 577,378.285714 L577,389.714286 C577,392 579.352941,392 579.352941,392 L594.647059,392 C594.647059,392 597,392 597,389.714286 L597,378.285714 C597,376 594.647059,376 594.647059,376 L579.352941,376 L579.352941,376 Z M579.2,377 C579.2,377 578,377 578,378.166667 L578,389.833333 C578,391 579.2,391 579.2,391 L594.8,391 C594.8,391 596,391 596,389.833333 L596,378.166667 C596,377 594.8,377 594.8,377 L579.2,377 L579.2,377 Z M576.578947,393 C576.578947,393 576.000001,393 576,393.5 C576,394 576.578947,394 576.578947,394 L597.421053,394 C597.421053,394 598,394 598,393.5 C598,393 597.421053,393 597.421053,393 L576.578947,393 L576.578947,393 Z M576.578947,374 C576.578947,374 576.000001,374 576,374.5 C576,375 576.578947,375 576.578947,375 L597.421053,375 C597.421053,375 598,375 598,374.5 C598,374 597.421053,374 597.421053,374 L576.578947,374 L576.578947,374 Z M581,382 L581,383 L582,383 L582,382 L581,382 L581,382 Z M583,382 L583,383 L592,383 L592,382 L583,382 L583,382 Z M580,379 L580,380 L594,380 L594,379 L580,379 L580,379 Z M581,385 L581,386 L582,386 L582,385 L581,385 L581,385 Z M583,385 L583,386 L592,386 L592,385 L583,385 L583,385 Z M581,388 L581,389 L582,389 L582,388 L581,388 L581,388 Z M583,388 L583,389 L592,389 L592,388 L583,388 Z M586,372 L586,374 L588,374 L588,372 L586,372 Z" fill="#000000" id="device-projector-screen-content-text-presentation-outline-stroke"/></g></g></svg>