<?xml version="1.0" ?><svg height="24px" version="1.1" viewBox="0 0 24 24" width="24px" xmlns="http://www.w3.org/2000/svg" xmlns:sketch="http://www.bohemiancoding.com/sketch/ns" xmlns:xlink="http://www.w3.org/1999/xlink"><title/><desc/><defs/><g fill="none" fill-rule="evenodd" id="miu" stroke="none" stroke-width="1"><g id="Artboard-1" transform="translate(-575.000000, -335.000000)"><g id="slice" transform="translate(215.000000, 119.000000)"/><path d="M589,341 L592.875307,347.439202 C593.054413,347.736805 593.038385,348.210001 592.841318,348.493512 L591.794163,350 L589,341 Z M582.244258,337.571701 C581.557073,336.703674 581.900176,336 582.992017,336 L590.007983,336 C591.108144,336 591.439299,336.708257 590.755742,337.571701 L588.200012,340.800003 L592,354.5 L586.5,358 L581,354.5 L584.799988,340.800003 L582.244258,337.571701 Z M585.899411,340.577673 L582.160004,354.050003 L586.499847,356.814788 L590.841894,354.050003 L587.100589,340.577673 L589.929993,337 L583.067383,337 L585.899411,340.577673 Z" fill="#000000" id="business-tie-outline-stroke"/></g></g></svg>