<?xml version="1.0" ?><svg height="24px" version="1.1" viewBox="0 0 24 24" width="24px" xmlns="http://www.w3.org/2000/svg" xmlns:sketch="http://www.bohemiancoding.com/sketch/ns" xmlns:xlink="http://www.w3.org/1999/xlink"><title/><desc/><defs/><g fill="none" fill-rule="evenodd" id="miu" stroke="none" stroke-width="1"><g id="Artboard-1" transform="translate(-215.000000, -227.000000)"><g id="slice" transform="translate(215.000000, 119.000000)"/><path d="M220,229.210129 L220,247.789871 C220,247.905922 220.091899,248 220.206336,248 L234.793664,248 C234.90762,248 235,247.906732 235,247.789871 L235,229.210129 C235,229.094078 234.908101,229 234.793664,229 L220.206336,229 C220.09238,229 220,229.093268 220,229.210129 Z M221,230 L221,247 L234,247 L234,230 L221,230 Z M222,232 L222,233 L233,233 L233,232 L222,232 L222,232 Z M222,235 L222,236 L233,236 L233,235 L222,235 L222,235 Z M222,238 L222,239 L233,239 L233,238 L222,238 L222,238 Z M222,241 L222,242 L233,242 L233,241 L222,241 L222,241 Z M222,244 L222,245 L229,245 L229,244 L222,244 L222,244 Z" fill="#000000" id="editor-document-file-outline-stroke"/></g></g></svg>